<svg width="344" height="52" viewBox="0 0 344 52" fill="none" xmlns="http://www.w3.org/2000/svg">
<path d="M27.36 5.27999V12.768H18.336V39.12H8.92799V12.768H-9.47714e-06V5.27999H27.36ZM37.9927 9.69599C36.3287 9.69599 34.9847 9.24799 33.9607 8.35199C32.9687 7.42399 32.4727 6.27199 32.4727 4.89599C32.4727 3.48799 32.9687 2.31999 33.9607 1.39199C34.9847 0.463993 36.3287 -7.62939e-06 37.9927 -7.62939e-06C39.6247 -7.62939e-06 40.9367 0.463993 41.9287 1.39199C42.9527 2.31999 43.4647 3.48799 43.4647 4.89599C43.4647 6.27199 42.9527 7.42399 41.9287 8.35199C40.9367 9.24799 39.6247 9.69599 37.9927 9.69599ZM42.6487 12.192V39.12H33.2407V12.192H42.6487ZM48.8704 25.632C48.8704 22.848 49.4464 20.416 50.5984 18.336C51.7504 16.256 53.3504 14.656 55.3984 13.536C57.4784 12.416 59.8464 11.856 62.5024 11.856C65.9264 11.856 68.8064 12.8 71.1424 14.688C73.4784 16.544 74.9824 19.152 75.6544 22.512H65.6704C65.0944 20.752 63.9744 19.872 62.3104 19.872C61.1264 19.872 60.1824 20.368 59.4784 21.36C58.8064 22.32 58.4704 23.744 58.4704 25.632C58.4704 27.52 58.8064 28.96 59.4784 29.952C60.1824 30.944 61.1264 31.44 62.3104 31.44C64.0064 31.44 65.1264 30.56 65.6704 28.8H75.6544C74.9824 32.128 73.4784 34.736 71.1424 36.624C68.8064 38.512 65.9264 39.456 62.5024 39.456C59.8464 39.456 57.4784 38.896 55.3984 37.776C53.3504 36.656 51.7504 35.056 50.5984 32.976C49.4464 30.896 48.8704 28.448 48.8704 25.632ZM98.8106 39.12L91.3706 28.08V39.12H81.9626V3.59999H91.3706V22.752L98.8106 12.192H110.091L99.4826 25.728L110.283 39.12H98.8106ZM141.169 25.344C141.169 26.08 141.121 26.816 141.025 27.552H123.217C123.313 29.024 123.713 30.128 124.417 30.864C125.153 31.568 126.081 31.92 127.201 31.92C128.769 31.92 129.889 31.216 130.561 29.808H140.593C140.177 31.664 139.361 33.328 138.145 34.8C136.961 36.24 135.457 37.376 133.633 38.208C131.809 39.04 129.793 39.456 127.585 39.456C124.929 39.456 122.561 38.896 120.481 37.776C118.433 36.656 116.817 35.056 115.633 32.976C114.481 30.896 113.905 28.448 113.905 25.632C113.905 22.816 114.481 20.384 115.633 18.336C116.785 16.256 118.385 14.656 120.433 13.536C122.513 12.416 124.897 11.856 127.585 11.856C130.241 11.856 132.593 12.4 134.641 13.488C136.689 14.576 138.289 16.144 139.441 18.192C140.593 20.208 141.169 22.592 141.169 25.344ZM131.569 22.992C131.569 21.84 131.185 20.944 130.417 20.304C129.649 19.632 128.689 19.296 127.537 19.296C126.385 19.296 125.441 19.616 124.705 20.256C123.969 20.864 123.489 21.776 123.265 22.992H131.569ZM163.307 31.104V39.12H159.227C152.347 39.12 148.907 35.712 148.907 28.896V20.016H145.595V12.192H148.907V5.66399H158.363V12.192H163.259V20.016H158.363V29.04C158.363 29.776 158.523 30.304 158.843 30.624C159.195 30.944 159.771 31.104 160.571 31.104H163.307Z" fill="#DC3545"/>
<path d="M224.541 39.12H215.133L202.605 20.208V39.12H193.197V5.27999H202.605L215.133 24.432V5.27999H224.541V39.12ZM258.028 25.344C258.028 26.08 257.98 26.816 257.884 27.552H240.076C240.172 29.024 240.572 30.128 241.276 30.864C242.012 31.568 242.94 31.92 244.06 31.92C245.628 31.92 246.748 31.216 247.42 29.808H257.452C257.036 31.664 256.22 33.328 255.004 34.8C253.82 36.24 252.316 37.376 250.492 38.208C248.668 39.04 246.652 39.456 244.444 39.456C241.788 39.456 239.42 38.896 237.34 37.776C235.292 36.656 233.676 35.056 232.492 32.976C231.34 30.896 230.764 28.448 230.764 25.632C230.764 22.816 231.34 20.384 232.492 18.336C233.644 16.256 235.244 14.656 237.292 13.536C239.372 12.416 241.756 11.856 244.444 11.856C247.1 11.856 249.452 12.4 251.5 13.488C253.548 14.576 255.148 16.144 256.3 18.192C257.452 20.208 258.028 22.592 258.028 25.344ZM248.428 22.992C248.428 21.84 248.044 20.944 247.276 20.304C246.508 19.632 245.548 19.296 244.396 19.296C243.244 19.296 242.3 19.616 241.564 20.256C240.828 20.864 240.348 21.776 240.124 22.992H248.428ZM273.686 15.936C274.422 14.688 275.462 13.696 276.806 12.96C278.15 12.224 279.734 11.856 281.558 11.856C283.702 11.856 285.638 12.416 287.366 13.536C289.126 14.656 290.502 16.256 291.494 18.336C292.518 20.416 293.03 22.848 293.03 25.632C293.03 28.416 292.518 30.864 291.494 32.976C290.502 35.056 289.126 36.656 287.366 37.776C285.638 38.896 283.702 39.456 281.558 39.456C279.734 39.456 278.15 39.088 276.806 38.352C275.494 37.616 274.454 36.624 273.686 35.376V51.984H264.278V12.192H273.686V15.936ZM283.478 25.632C283.478 23.872 282.998 22.512 282.038 21.552C281.11 20.56 279.958 20.064 278.582 20.064C277.206 20.064 276.038 20.56 275.078 21.552C274.15 22.544 273.686 23.904 273.686 25.632C273.686 27.392 274.15 28.768 275.078 29.76C276.038 30.752 277.206 31.248 278.582 31.248C279.958 31.248 281.11 30.752 282.038 29.76C282.998 28.736 283.478 27.36 283.478 25.632ZM297.767 25.632C297.767 22.848 298.263 20.416 299.255 18.336C300.279 16.256 301.655 14.656 303.383 13.536C305.143 12.416 307.095 11.856 309.239 11.856C311.095 11.856 312.695 12.224 314.039 12.96C315.383 13.696 316.423 14.688 317.159 15.936V12.192H326.567V39.12H317.159V35.376C316.423 36.624 315.367 37.616 313.991 38.352C312.647 39.088 311.063 39.456 309.239 39.456C307.095 39.456 305.143 38.896 303.383 37.776C301.655 36.656 300.279 35.056 299.255 32.976C298.263 30.864 297.767 28.416 297.767 25.632ZM317.159 25.632C317.159 23.904 316.679 22.544 315.719 21.552C314.791 20.56 313.639 20.064 312.263 20.064C310.855 20.064 309.687 20.56 308.759 21.552C307.831 22.512 307.367 23.872 307.367 25.632C307.367 27.36 307.831 28.736 308.759 29.76C309.687 30.752 310.855 31.248 312.263 31.248C313.639 31.248 314.791 30.752 315.719 29.76C316.679 28.768 317.159 27.392 317.159 25.632ZM343.736 3.59999V39.12H334.328V3.59999H343.736Z" fill="#0056B3"/>
</svg>
